# xmcd
#
# Track frame offsets:
#	150
#	15709
#	33762
#	50668
#	69494
#	86196
#	111916
#	126533
#	140744
#	158610
#	172420
#	189440
#	204599
#	220892
#	239010
#	254378
#
# Disc length: 3583 seconds
#
# Revision: 5
# Processed by: cddbd v1.4PL0 Copyright (c) Steve Scherf et al.
# Submitted via: audiograbber 1.80
#
DISCID=f70dfd10
DTITLE=Bulanova Tanya - The BEST
DYEAR=1998
DGENRE=Pop
TTITLE0=Jasnyi Moi Swet
TTITLE1=Moi nenagljadnyi
TTITLE2=Sterpitcja-Sljubitsja
TTITLE3=Wot i solnze selo
TTITLE4=Obratnyi Bilet
TTITLE5=Korostel
TTITLE6=Bereg Moi
TTITLE7=Kupi-Pradai
TTITLE8=Ptica Feniks
TTITLE9=Chjja Wina
TTITLE10=Korolewna
TTITLE11=Leti, Korowka Bozhija
TTITLE12=Zmei
TTITLE13=Beguschajaj po Wolnam
TTITLE14=Serebristyi Topol
TTITLE15=Nezhnost
EXTD=1995,  ARTS MUSIC GMBH YEAR: 1998 ID3G: 13
EXTT0=
EXTT1=
EXTT2=
EXTT3=
EXTT4=
EXTT5=
EXTT6=
EXTT7=
EXTT8=
EXTT9=
EXTT10=
EXTT11=
EXTT12=
EXTT13=
EXTT14=
EXTT15=
PLAYORDER=
